<svg width="83" height="54" viewBox="0 0 83 54" fill="none" xmlns="http://www.w3.org/2000/svg">
<path d="M54.2236 1C55.2437 1 56.1203 1.40775 56.7793 2.18652C57.4345 2.96093 57.7197 3.93257 57.7197 5.00781C57.7197 5.60833 57.5519 6.27246 57.2861 6.96582C57.0161 7.67022 56.6217 8.46596 56.1152 9.34668C55.2363 10.9073 54.2815 13.4169 53.2646 16.9336L53.2637 16.9365C52.3734 19.9784 51.7308 22.8643 51.333 25.5947C53.1265 25.6508 54.7078 25.842 56.0664 26.1816L56.8916 26.3877L56.8203 27.2354L56.501 31.0752L56.417 32.0752L55.417 31.9883C54.4689 31.9059 53.4313 31.8643 52.3037 31.8643C51.5859 31.8643 50.9446 31.8738 50.3789 31.8916C49.8451 36.317 49.4957 41.1042 49.3359 46.2549L49.3057 47.2236H43.0605L42.8818 46.4492C42.6017 45.2354 42.4717 43.678 42.4717 41.8076C42.4717 39.9592 42.5154 38.3581 42.6025 37.0078V36.9932L42.6045 36.9785C42.7335 35.602 42.8845 34.2466 43.0566 32.9121C43.1187 32.4311 43.1662 32.0259 43.2051 31.6963C42.4755 31.681 41.4374 31.6719 40.0801 31.6719C38.2086 31.6719 36.8564 31.7024 36 31.7598C31.1287 38.2719 26.6019 43.2771 22.4131 46.7393L22.4082 46.7432L22.4072 46.7422C18.1004 50.2579 13.7038 52.0878 9.23242 52.0879C6.9714 52.0879 5.02051 51.3987 3.45215 49.9824V49.9834C1.80658 48.5373 1 46.6094 1 44.3037C1.00015 39.8442 4.38612 36.0455 10.3545 32.8018L10.3574 32.7998C16.3356 29.5742 23.974 27.4146 33.2324 26.2803C34.4252 24.5213 36.4394 21.9863 39.252 18.6982C42.2497 15.1516 45.2133 12.052 48.1436 9.40332C49.3834 6.52214 50.3838 4.45621 51.1377 3.25879L51.1426 3.25098C51.9285 2.02849 52.9362 1.0002 54.2236 1ZM56.626 20.6523L60.7861 21.0361L61.3906 21.0918L61.6201 21.6543C62.8798 24.7383 63.8754 28.0743 64.6113 31.6592L64.7676 32.3594C64.9468 33.1981 65.1955 34.4518 65.5146 36.1113C65.6832 36.9708 65.8397 37.7566 65.9814 38.4688C67.7971 35.0553 69.4206 32.1937 70.8525 29.8887L70.8545 29.8848C72.6823 26.969 74.6341 24.5299 76.7148 22.582L77.3447 21.9922L78.0195 22.5293L80.1963 24.2568L80.9629 24.8652L80.3701 25.6455C74.716 33.0852 70.9376 39.231 68.9814 44.1006L68.9795 44.1074C68.217 45.9659 66.9609 47.2235 65.1104 47.2236C63.8904 47.2236 62.8977 46.5624 62.1338 45.5439L62.124 45.5312L62.1152 45.5176C61.4834 44.6149 61.0182 43.7529 60.7637 42.9385L60.7529 42.9043L60.7441 42.8691C60.5675 42.1183 60.2647 40.6028 59.8389 38.3457C59.4136 36.0918 58.9462 33.7518 58.4355 31.3262L58.4346 31.3223C57.9236 28.8527 57.5035 27.048 57.1729 25.8906L57.167 25.8711L57.1621 25.8506C56.8614 24.6049 56.6571 23.8365 56.5449 23.5L56.5293 23.4512L56.5176 23.4014C56.4698 23.1863 56.3843 23.0406 56.2744 22.9307L56.248 22.9043L56.2227 22.875C56.0898 22.72 55.9771 22.5835 55.8887 22.4697C55.8169 22.3775 55.7106 22.2375 55.6396 22.0957L54.835 20.4873L56.626 20.6523ZM29.2656 32.0732C23.1443 32.6102 18.4252 33.8775 15.0459 35.8232L15.0469 35.8242C11.237 38.0432 9.71973 40.1951 9.71973 42.1924C9.71981 43.0545 9.98846 43.6352 10.459 44.0557C11.0068 44.5077 11.7622 44.7764 12.8164 44.7764C15.7773 44.7762 18.9956 43.2191 22.4854 39.8125L22.4941 39.8037C25.3414 37.0936 27.5929 34.5161 29.2656 32.0732ZM45.3809 20.3369C44.6023 21.1226 44.0057 21.7547 43.5889 22.2373L43.5732 22.2549C42.9719 22.9196 42.0025 24.0873 40.6592 25.7705C40.818 25.7693 40.9804 25.7676 41.1465 25.7676C42.2008 25.7253 43.0611 25.6834 43.7295 25.6416C43.9209 25.6296 44.0955 25.6202 44.252 25.6113C44.525 24.2997 44.8552 22.7369 45.2461 20.9248L45.25 20.9111C45.2959 20.7124 45.3384 20.5208 45.3809 20.3369Z" fill="#C0C5CE" stroke="#343D46" stroke-width="2"/>
</svg>
