<svg width="44" height="29" viewBox="0 0 44 29" fill="none" xmlns="http://www.w3.org/2000/svg">
<mask id="path-1-outside-1_185_104" maskUnits="userSpaceOnUse" x="-0.959961" y="-0.888" width="45" height="30" fill="black">
<rect fill="white" x="-0.959961" y="-0.888" width="45" height="30"/>
<path d="M28.912 14.576L28.752 16.496C28.2614 16.4533 27.728 16.432 27.152 16.432C26.5974 16.432 26.128 16.4427 25.744 16.464C25.4454 18.8107 25.2534 21.36 25.168 24.112H22.928C22.8 23.5573 22.736 22.8213 22.736 21.904C22.736 20.9867 22.7574 20.1973 22.8 19.536C22.864 18.8533 22.9387 18.1813 23.024 17.52C23.1094 16.8587 23.152 16.4747 23.152 16.368C22.8534 16.3467 22.1494 16.336 21.04 16.336C19.9307 16.336 19.1627 16.3573 18.736 16.4C16.2614 19.728 13.9787 22.256 11.888 23.984C9.79737 25.6907 7.70671 26.544 5.61604 26.544C4.59204 26.544 3.73871 26.2347 3.05604 25.616C2.35204 24.9973 2.00004 24.176 2.00004 23.152C2.00004 21.2107 3.47204 19.44 6.41604 17.84C9.38137 16.24 13.2107 15.1627 17.904 14.608C18.4587 13.7547 19.4934 12.4427 21.008 10.672C22.5227 8.88 24.016 7.32267 25.488 6C26.128 4.50666 26.6294 3.472 26.992 2.896C27.376 2.29866 27.7494 2 28.112 2C28.4747 2 28.7734 2.13866 29.008 2.416C29.2427 2.69333 29.36 3.056 29.36 3.504C29.36 3.93067 29.1147 4.57067 28.624 5.424C28.1547 6.256 27.664 7.55733 27.152 9.328C26.64 11.0773 26.288 12.7307 26.096 14.288C27.2054 14.288 28.144 14.384 28.912 14.576ZM12.592 21.264C14.3627 19.5787 15.696 17.9787 16.592 16.464C13.008 16.6773 10.2347 17.3493 8.27204 18.48C6.33071 19.6107 5.36004 20.816 5.36004 22.096C5.36004 22.6507 5.54137 23.088 5.90404 23.408C6.28804 23.728 6.78937 23.888 7.40804 23.888C9.07204 23.888 10.8 23.0133 12.592 21.264ZM23.536 14.288C23.6854 13.5627 23.8774 12.656 24.112 11.568C24.368 10.4587 24.5174 9.808 24.56 9.616C23.536 10.5973 22.8214 11.3227 22.416 11.792C22.0107 12.24 21.296 13.1147 20.272 14.416C20.6347 14.3947 21.072 14.384 21.584 14.384C22.1174 14.3627 22.5547 14.3413 22.896 14.32C23.2374 14.2987 23.4507 14.288 23.536 14.288ZM39.699 12.656L40.787 13.52C37.9497 17.2533 36.0297 20.368 35.027 22.864C34.6857 23.696 34.195 24.112 33.555 24.112C33.1497 24.112 32.787 23.8987 32.467 23.472C32.1684 23.0453 31.9657 22.6613 31.859 22.32C31.7737 21.9573 31.6244 21.2107 31.411 20.08C31.1977 18.9493 30.963 17.776 30.707 16.56C30.451 15.3227 30.2377 14.4053 30.067 13.808C29.9177 13.1893 29.811 12.784 29.747 12.592C29.7044 12.4 29.619 12.24 29.491 12.112C29.363 11.9627 29.2884 11.8667 29.267 11.824L31.347 12.016C31.9657 13.5307 32.4564 15.1733 32.819 16.944C32.9044 17.3067 33.0537 18.0427 33.267 19.152C33.4804 20.24 33.651 21.0933 33.779 21.712C34.9524 19.4507 35.9764 17.616 36.851 16.208C37.747 14.7787 38.6964 13.5947 39.699 12.656Z"/>
</mask>
<path d="M28.912 14.576L28.752 16.496C28.2614 16.4533 27.728 16.432 27.152 16.432C26.5974 16.432 26.128 16.4427 25.744 16.464C25.4454 18.8107 25.2534 21.36 25.168 24.112H22.928C22.8 23.5573 22.736 22.8213 22.736 21.904C22.736 20.9867 22.7574 20.1973 22.8 19.536C22.864 18.8533 22.9387 18.1813 23.024 17.52C23.1094 16.8587 23.152 16.4747 23.152 16.368C22.8534 16.3467 22.1494 16.336 21.04 16.336C19.9307 16.336 19.1627 16.3573 18.736 16.4C16.2614 19.728 13.9787 22.256 11.888 23.984C9.79737 25.6907 7.70671 26.544 5.61604 26.544C4.59204 26.544 3.73871 26.2347 3.05604 25.616C2.35204 24.9973 2.00004 24.176 2.00004 23.152C2.00004 21.2107 3.47204 19.44 6.41604 17.84C9.38137 16.24 13.2107 15.1627 17.904 14.608C18.4587 13.7547 19.4934 12.4427 21.008 10.672C22.5227 8.88 24.016 7.32267 25.488 6C26.128 4.50666 26.6294 3.472 26.992 2.896C27.376 2.29866 27.7494 2 28.112 2C28.4747 2 28.7734 2.13866 29.008 2.416C29.2427 2.69333 29.36 3.056 29.36 3.504C29.36 3.93067 29.1147 4.57067 28.624 5.424C28.1547 6.256 27.664 7.55733 27.152 9.328C26.64 11.0773 26.288 12.7307 26.096 14.288C27.2054 14.288 28.144 14.384 28.912 14.576ZM12.592 21.264C14.3627 19.5787 15.696 17.9787 16.592 16.464C13.008 16.6773 10.2347 17.3493 8.27204 18.48C6.33071 19.6107 5.36004 20.816 5.36004 22.096C5.36004 22.6507 5.54137 23.088 5.90404 23.408C6.28804 23.728 6.78937 23.888 7.40804 23.888C9.07204 23.888 10.8 23.0133 12.592 21.264ZM23.536 14.288C23.6854 13.5627 23.8774 12.656 24.112 11.568C24.368 10.4587 24.5174 9.808 24.56 9.616C23.536 10.5973 22.8214 11.3227 22.416 11.792C22.0107 12.24 21.296 13.1147 20.272 14.416C20.6347 14.3947 21.072 14.384 21.584 14.384C22.1174 14.3627 22.5547 14.3413 22.896 14.32C23.2374 14.2987 23.4507 14.288 23.536 14.288ZM39.699 12.656L40.787 13.52C37.9497 17.2533 36.0297 20.368 35.027 22.864C34.6857 23.696 34.195 24.112 33.555 24.112C33.1497 24.112 32.787 23.8987 32.467 23.472C32.1684 23.0453 31.9657 22.6613 31.859 22.32C31.7737 21.9573 31.6244 21.2107 31.411 20.08C31.1977 18.9493 30.963 17.776 30.707 16.56C30.451 15.3227 30.2377 14.4053 30.067 13.808C29.9177 13.1893 29.811 12.784 29.747 12.592C29.7044 12.4 29.619 12.24 29.491 12.112C29.363 11.9627 29.2884 11.8667 29.267 11.824L31.347 12.016C31.9657 13.5307 32.4564 15.1733 32.819 16.944C32.9044 17.3067 33.0537 18.0427 33.267 19.152C33.4804 20.24 33.651 21.0933 33.779 21.712C34.9524 19.4507 35.9764 17.616 36.851 16.208C37.747 14.7787 38.6964 13.5947 39.699 12.656Z" fill="#C0C5CE"/>
<path d="M28.912 14.576L30.9051 14.7421L31.0463 13.048L29.3971 12.6357L28.912 14.576ZM28.752 16.496L28.5788 18.4885L30.5784 18.6624L30.7451 16.6621L28.752 16.496ZM25.744 16.464L25.6331 14.4671L23.9703 14.5595L23.76 16.2115L25.744 16.464ZM25.168 24.112V26.112H27.107L27.1671 24.174L25.168 24.112ZM22.928 24.112L20.9793 24.5617L21.337 26.112H22.928V24.112ZM22.8 19.536L20.8088 19.3493L20.8061 19.3782L20.8042 19.4072L22.8 19.536ZM23.152 16.368H25.152V14.5058L23.2945 14.3731L23.152 16.368ZM18.736 16.4L18.537 14.4099L17.6582 14.4978L17.1311 15.2066L18.736 16.4ZM11.888 23.984L13.1528 25.5334L13.1622 25.5256L11.888 23.984ZM3.05604 25.616L4.39908 24.134L4.38775 24.1238L4.37627 24.1137L3.05604 25.616ZM6.41604 17.84L5.46633 16.0799L5.46101 16.0828L6.41604 17.84ZM17.904 14.608L18.1388 16.5942L19.0699 16.4841L19.5809 15.698L17.904 14.608ZM21.008 10.672L22.5279 11.9721L22.5355 11.9631L21.008 10.672ZM25.488 6L26.8248 7.48766L27.1527 7.19302L27.3263 6.78784L25.488 6ZM26.992 2.896L25.3097 1.81448L25.3046 1.8224L25.2996 1.83037L26.992 2.896ZM29.008 2.416L27.4813 3.70788L27.4813 3.70788L29.008 2.416ZM28.624 5.424L26.8902 4.42705L26.8861 4.43419L26.8821 4.44136L28.624 5.424ZM27.152 9.328L29.0715 9.8898L29.0733 9.88355L27.152 9.328ZM26.096 14.288L24.1111 14.0433L23.8343 16.288H26.096V14.288ZM12.592 21.264L11.2132 19.8153L11.204 19.824L11.195 19.8329L12.592 21.264ZM16.592 16.464L18.3134 17.4823L20.229 14.244L16.4732 14.4675L16.592 16.464ZM8.27204 18.48L7.27367 16.747L7.26548 16.7518L8.27204 18.48ZM5.90404 23.408L4.5808 24.9077L4.60197 24.9264L4.62367 24.9444L5.90404 23.408ZM23.536 14.288V16.288H25.1662L25.495 14.6913L23.536 14.288ZM24.112 11.568L22.1633 11.1183L22.16 11.1323L22.157 11.1463L24.112 11.568ZM24.56 9.616L26.5124 10.0499L27.9453 3.60162L23.1762 8.17202L24.56 9.616ZM22.416 11.792L23.8991 13.1338L23.9146 13.1167L23.9297 13.0992L22.416 11.792ZM20.272 14.416L18.7003 13.1792L15.9506 16.6737L20.3895 16.4125L20.272 14.416ZM21.584 14.384V16.384H21.624L21.664 16.3824L21.584 14.384ZM22.896 14.32L22.7713 12.3239L22.7713 12.3239L22.896 14.32ZM28.912 14.576L26.9189 14.4099L26.7589 16.3299L28.752 16.496L30.7451 16.6621L30.9051 14.7421L28.912 14.576ZM28.752 16.496L28.9253 14.5035C28.3684 14.4551 27.7765 14.432 27.152 14.432V16.432V18.432C27.6796 18.432 28.1544 18.4516 28.5788 18.4885L28.752 16.496ZM27.152 16.432V14.432C26.575 14.432 26.0662 14.443 25.6331 14.4671L25.744 16.464L25.855 18.4609C26.1899 18.4423 26.6198 18.432 27.152 18.432V16.432ZM25.744 16.464L23.76 16.2115C23.4522 18.6306 23.256 21.2443 23.169 24.05L25.168 24.112L27.1671 24.174C27.2507 21.4757 27.4386 18.9907 27.728 16.7165L25.744 16.464ZM25.168 24.112V22.112H22.928V24.112V26.112H25.168V24.112ZM22.928 24.112L24.8768 23.6623C24.7971 23.3167 24.736 22.7499 24.736 21.904H22.736H20.736C20.736 22.8928 20.803 23.798 20.9793 24.5617L22.928 24.112ZM22.736 21.904H24.736C24.736 21.0146 24.7568 20.2705 24.7959 19.6648L22.8 19.536L20.8042 19.4072C20.7579 20.1241 20.736 20.9587 20.736 21.904H22.736ZM22.8 19.536L24.7913 19.7227C24.8532 19.0625 24.9253 18.4136 25.0076 17.7759L23.024 17.52L21.0405 17.2641C20.9521 17.9491 20.8749 18.6442 20.8088 19.3493L22.8 19.536ZM23.024 17.52L25.0076 17.7759C25.0822 17.1975 25.152 16.6395 25.152 16.368H23.152H21.152C21.152 16.3001 21.1566 16.2684 21.1516 16.3267C21.1482 16.3659 21.142 16.4272 21.1323 16.5151C21.1128 16.69 21.0826 16.938 21.0405 17.2641L23.024 17.52ZM23.152 16.368L23.2945 14.3731C22.9096 14.3456 22.1265 14.336 21.04 14.336V16.336V18.336C22.1723 18.336 22.7972 18.3477 23.0095 18.3629L23.152 16.368ZM21.04 16.336V14.336C19.9362 14.336 19.0755 14.3561 18.537 14.4099L18.736 16.4L18.935 18.3901C19.2499 18.3586 19.9252 18.336 21.04 18.336V16.336ZM18.736 16.4L17.1311 15.2066C14.7075 18.4659 12.5338 20.8555 10.6139 22.4424L11.888 23.984L13.1622 25.5256C15.4236 23.6565 17.8152 20.9901 20.341 17.5934L18.736 16.4ZM11.888 23.984L10.6233 22.4347C8.78426 23.9359 7.12595 24.544 5.61604 24.544V26.544V28.544C8.28746 28.544 10.8105 27.4454 13.1528 25.5333L11.888 23.984ZM5.61604 26.544V24.544C5.02877 24.544 4.67189 24.3813 4.39908 24.134L3.05604 25.616L1.713 27.098C2.80552 28.0881 4.15531 28.544 5.61604 28.544V26.544ZM3.05604 25.616L4.37627 24.1137C4.1474 23.9125 4.00004 23.6607 4.00004 23.152H2.00004H3.88622e-05C3.88622e-05 24.6913 0.556675 26.0821 1.73581 27.1183L3.05604 25.616ZM2.00004 23.152H4.00004C4.00004 22.3647 4.58826 21.1096 7.37107 19.5972L6.41604 17.84L5.46101 16.0828C2.35582 17.7704 3.88622e-05 20.0566 3.88622e-05 23.152H2.00004ZM6.41604 17.84L7.36575 19.6001C10.0392 18.1576 13.6025 17.1303 18.1388 16.5942L17.904 14.608L17.6693 12.6218C12.8189 13.195 8.72358 14.3224 5.46633 16.0799L6.41604 17.84ZM17.904 14.608L19.5809 15.698C20.0577 14.9644 21.0166 13.7388 22.5278 11.9721L21.008 10.672L19.4882 9.37193C17.9702 11.1466 16.8597 12.5449 16.2272 13.518L17.904 14.608ZM21.008 10.672L22.5355 11.9631C24.0016 10.2285 25.4319 8.73926 26.8248 7.48766L25.488 6L24.1513 4.51234C22.6002 5.90607 21.0438 7.53153 19.4806 9.38093L21.008 10.672ZM25.488 6L27.3263 6.78784C27.9659 5.2954 28.4141 4.39102 28.6845 3.96163L26.992 2.896L25.2996 1.83037C24.8446 2.55298 24.2901 3.71793 23.6498 5.21216L25.488 6ZM26.992 2.896L28.6744 3.97751C28.8003 3.78159 28.853 3.75084 28.8094 3.78574C28.7549 3.82935 28.5115 4 28.112 4V2V-1.90735e-06C26.6248 -1.90735e-06 25.7296 1.1612 25.3097 1.81448L26.992 2.896ZM28.112 2V4C28.0322 4 27.9061 3.98315 27.7658 3.91802C27.6256 3.85293 27.5319 3.76778 27.4813 3.70788L29.008 2.416L30.5348 1.12412C29.9209 0.398579 29.0642 -1.90735e-06 28.112 -1.90735e-06V2ZM29.008 2.416L27.4813 3.70788C27.4222 3.63806 27.3866 3.56566 27.3692 3.51164C27.3533 3.46276 27.36 3.45333 27.36 3.504H29.36H31.36C31.36 2.69716 31.1415 1.84109 30.5348 1.12411L29.008 2.416ZM29.36 3.504H27.36C27.36 3.36949 27.3902 3.37501 27.3085 3.58813C27.2353 3.77934 27.1041 4.05517 26.8902 4.42705L28.624 5.424L30.3579 6.42094C30.6347 5.93949 30.8715 5.46866 31.0435 5.01987C31.2072 4.59299 31.36 4.06517 31.36 3.504H29.36ZM28.624 5.424L26.8821 4.44136C26.2956 5.48103 25.7538 6.96342 25.2307 8.77245L27.152 9.328L29.0733 9.88355C29.5742 8.15125 30.0138 7.03097 30.366 6.40664L28.624 5.424ZM27.152 9.328L25.2326 8.7662C24.6949 10.6031 24.3182 12.3631 24.1111 14.0433L26.096 14.288L28.081 14.5327C28.2579 13.0982 28.5851 11.5516 29.0715 9.8898L27.152 9.328ZM26.096 14.288V16.288C27.1017 16.288 27.8667 16.3762 28.427 16.5163L28.912 14.576L29.3971 12.6357C28.4213 12.3918 27.309 12.288 26.096 12.288V14.288ZM12.592 21.264L13.9709 22.7127C15.8274 20.9457 17.2952 19.2036 18.3134 17.4823L16.592 16.464L14.8707 15.4457C14.0969 16.7537 12.8981 18.2116 11.2132 19.8153L12.592 21.264ZM16.592 16.464L16.4732 14.4675C12.7418 14.6896 9.61735 15.3968 7.27368 16.747L8.27204 18.48L9.2704 20.213C10.8521 19.3018 13.2743 18.665 16.7109 18.4605L16.592 16.464ZM8.27204 18.48L7.26548 16.7518C5.17904 17.9669 3.36004 19.6907 3.36004 22.096H5.36004H7.36004C7.36004 21.9413 7.48237 21.2544 9.2786 20.2082L8.27204 18.48ZM5.36004 22.096H3.36004C3.36004 23.1312 3.7225 24.1504 4.5808 24.9077L5.90404 23.408L7.22728 21.9083C7.24496 21.9239 7.26763 21.9475 7.29041 21.9792C7.31328 22.011 7.33101 22.0438 7.34352 22.074C7.36928 22.1361 7.36004 22.1549 7.36004 22.096H5.36004ZM5.90404 23.408L4.62367 24.9444C5.44638 25.63 6.43627 25.888 7.40804 25.888V23.888V21.888C7.26978 21.888 7.19918 21.87 7.17612 21.8627C7.15807 21.8569 7.16785 21.8578 7.18441 21.8716L5.90404 23.408ZM7.40804 23.888V25.888C9.80597 25.888 12.009 24.6281 13.9891 22.6951L12.592 21.264L11.195 19.8329C9.59105 21.3986 8.33811 21.888 7.40804 21.888V23.888ZM23.536 14.288L25.495 14.6913C25.6426 13.9743 25.8332 13.0743 26.0671 11.9897L24.112 11.568L22.157 11.1463C21.9216 12.2377 21.7282 13.151 21.5771 13.8847L23.536 14.288ZM24.112 11.568L26.0608 12.0177C26.3157 10.9132 26.4675 10.252 26.5124 10.0499L24.56 9.616L22.6077 9.18214C22.5672 9.36402 22.4204 10.0041 22.1633 11.1183L24.112 11.568ZM24.56 9.616L23.1762 8.17202C22.1494 9.15606 21.3748 9.93781 20.9024 10.4848L22.416 11.792L23.9297 13.0992C24.268 12.7075 24.9227 12.0386 25.9439 11.06L24.56 9.616ZM22.416 11.792L20.933 10.4502C20.4749 10.9565 19.7201 11.8832 18.7003 13.1792L20.272 14.416L21.8438 15.6528C22.872 14.3461 23.5465 13.5235 23.8991 13.1338L22.416 11.792ZM20.272 14.416L20.3895 16.4125C20.7009 16.3942 21.0968 16.384 21.584 16.384V14.384V12.384C21.0473 12.384 20.5685 12.3951 20.1546 12.4195L20.272 14.416ZM21.584 14.384L21.664 16.3824C22.205 16.3608 22.6587 16.3387 23.0208 16.3161L22.896 14.32L22.7713 12.3239C22.4507 12.3439 22.0298 12.3646 21.5041 12.3856L21.584 14.384ZM22.896 14.32L23.0208 16.3161C23.1874 16.3057 23.3169 16.2983 23.4119 16.2935C23.52 16.2881 23.5491 16.288 23.536 16.288V14.288V12.288C23.3741 12.288 23.0892 12.304 22.7713 12.3239L22.896 14.32ZM39.699 12.656L40.9428 11.0898L39.5917 10.0168L38.3322 11.196L39.699 12.656ZM40.787 13.52L42.3794 14.7302L43.5641 13.1714L42.0308 11.9538L40.787 13.52ZM35.027 22.864L36.8774 23.6231L36.8802 23.6163L36.8829 23.6095L35.027 22.864ZM32.467 23.472L30.8286 24.6189L30.8474 24.6458L30.867 24.672L32.467 23.472ZM31.859 22.32L29.9122 22.7781L29.9287 22.848L29.9501 22.9165L31.859 22.32ZM31.411 20.08L29.4457 20.4508L29.4457 20.4508L31.411 20.08ZM30.707 16.56L28.7485 16.9652L28.7499 16.972L30.707 16.56ZM30.067 13.808L28.1229 14.2773L28.1326 14.3176L28.144 14.3574L30.067 13.808ZM29.747 12.592L27.7947 13.0259L27.817 13.1266L27.8497 13.2245L29.747 12.592ZM29.491 12.112L27.9725 13.4136L28.0225 13.4719L28.0768 13.5262L29.491 12.112ZM29.267 11.824L29.4509 9.83247L25.8699 9.50192L27.4782 12.7184L29.267 11.824ZM31.347 12.016L33.1985 11.2597L32.7396 10.136L31.5309 10.0245L31.347 12.016ZM32.819 16.944L30.8597 17.3453L30.8655 17.3738L30.8722 17.4021L32.819 16.944ZM33.267 19.152L31.303 19.5297L31.3044 19.5368L33.267 19.152ZM33.779 21.712L31.8205 22.1172L32.9612 27.6307L35.5543 22.6331L33.779 21.712ZM36.851 16.208L35.1565 15.1457L35.1522 15.1526L36.851 16.208ZM39.699 12.656L38.4553 14.2222L39.5433 15.0862L40.787 13.52L42.0308 11.9538L40.9428 11.0898L39.699 12.656ZM40.787 13.52L39.1947 12.3098C36.3166 16.0968 34.2722 19.3778 33.1712 22.1185L35.027 22.864L36.8829 23.6095C37.7873 21.3582 39.5828 18.4098 42.3794 14.7302L40.787 13.52ZM35.027 22.864L33.1767 22.1049C33.082 22.3357 33.033 22.3395 33.1097 22.2745C33.1536 22.2373 33.2233 22.1913 33.3164 22.157C33.4098 22.1227 33.4942 22.112 33.555 22.112V24.112V26.112C35.3366 26.112 36.3764 24.8443 36.8774 23.6231L35.027 22.864ZM33.555 24.112V22.112C33.7229 22.112 33.8793 22.1612 33.9931 22.2281C34.0919 22.2863 34.1091 22.3281 34.067 22.272L32.467 23.472L30.867 24.672C31.4348 25.429 32.3312 26.112 33.555 26.112V24.112ZM32.467 23.472L34.1055 22.3251C33.876 21.9973 33.7923 21.8012 33.768 21.7234L31.859 22.32L29.9501 22.9165C30.1391 23.5215 30.4607 24.0934 30.8286 24.6189L32.467 23.472ZM31.859 22.32L33.8059 21.8619C33.7325 21.5502 33.5913 20.8481 33.3764 19.7092L31.411 20.08L29.4457 20.4508C29.6575 21.5732 29.8149 22.3644 29.9122 22.7781L31.859 22.32ZM31.411 20.08L33.3764 19.7092C33.1602 18.5637 32.9228 17.3766 32.6641 16.148L30.707 16.56L28.7499 16.972C29.0033 18.1754 29.2352 19.335 29.4457 20.4508L31.411 20.08ZM30.707 16.56L32.6656 16.1548C32.4075 14.9077 32.1821 13.9305 31.9901 13.2586L30.067 13.808L28.144 14.3574C28.2934 14.8802 28.4945 15.7377 28.7485 16.9652L30.707 16.56ZM30.067 13.808L32.0112 13.3387C31.8659 12.7368 31.7401 12.2465 31.6444 11.9595L29.747 12.592L27.8497 13.2245C27.882 13.3215 27.9695 13.6419 28.1229 14.2773L30.067 13.808ZM29.747 12.592L31.6994 12.1581C31.5817 11.6282 31.3254 11.118 30.9053 10.6978L29.491 12.112L28.0768 13.5262C27.9126 13.362 27.8271 13.1717 27.7947 13.0259L29.747 12.592ZM29.491 12.112L31.0096 10.8104C30.9837 10.7802 30.963 10.7557 30.947 10.7362C30.9306 10.7164 30.9214 10.7048 30.9177 10.7001C30.9128 10.6938 30.9214 10.7045 30.9374 10.7276C30.9458 10.7397 30.9603 10.761 30.9781 10.7898C30.9945 10.8164 31.0236 10.8649 31.0559 10.9296L29.267 11.824L27.4782 12.7184C27.5882 12.9385 27.7287 13.1152 27.7603 13.1559C27.8253 13.2393 27.8988 13.3275 27.9725 13.4136L29.491 12.112ZM29.267 11.824L29.0832 13.8155L31.1632 14.0075L31.347 12.016L31.5309 10.0245L29.4509 9.83247L29.267 11.824ZM31.347 12.016L29.4955 12.7722C30.0628 14.161 30.5194 15.6836 30.8597 17.3453L32.819 16.944L34.7784 16.5427C34.3934 14.6631 33.8686 12.9003 33.1985 11.2597L31.347 12.016ZM32.819 16.944L30.8722 17.4021C30.9465 17.718 31.0883 18.4133 31.303 19.5297L33.267 19.152L35.2311 18.7743C35.0191 17.672 34.8622 16.8954 34.7659 16.4859L32.819 16.944ZM33.267 19.152L31.3044 19.5368C31.5182 20.6274 31.6905 21.4885 31.8205 22.1172L33.779 21.712L35.7376 21.3068C35.6116 20.6981 35.4425 19.8526 35.2297 18.7672L33.267 19.152ZM33.779 21.712L35.5543 22.6331C36.715 20.3961 37.7127 18.611 38.5499 17.2634L36.851 16.208L35.1522 15.1526C34.24 16.621 33.1897 18.5053 32.0038 20.7909L33.779 21.712ZM36.851 16.208L38.5456 17.2703C39.37 15.9552 40.2139 14.9136 41.0659 14.116L39.699 12.656L38.3322 11.196C37.1788 12.2757 36.1241 13.6021 35.1565 15.1457L36.851 16.208Z" fill="#4F5B66" mask="url(#path-1-outside-1_185_104)"/>
</svg>
