<svg width="8" height="10" viewBox="0 0 8 10" fill="none" xmlns="http://www.w3.org/2000/svg">
<path d="M0 9.28C0 6.37 0 3.46 0 0.55C1.22 0.19 2.43 0 3.65 0C3.69 0 3.73 0 3.77 0C4.41 0.01 4.98 0.18 5.47 0.49C5.95 0.8 6.33 1.23 6.6 1.73C6.87 2.24 7.01 2.81 7.01 3.43C7.01 4.06 6.87 4.54 6.59 4.91C6.31 5.27 5.92 5.51 5.42 5.65C4.93 5.8 4.35 5.85 3.68 5.85C3.67 5.85 3.66 5.85 3.65 5.85C2.91 5.85 2.17 5.92 1.43 6.05C1.43 5.44 1.43 4.82 1.43 4.21C2.02 4.1 2.61 4.04 3.2 4.02C3.37 4.01 3.51 4 3.65 3.97C3.74 3.96 3.83 3.94 3.92 3.91C4.12 3.84 4.27 3.74 4.37 3.59C4.48 3.44 4.53 3.25 4.53 3C4.53 2.75 4.48 2.54 4.37 2.38C4.27 2.22 4.12 2.09 3.92 2.01C3.83 1.98 3.74 1.95 3.65 1.93C3.51 1.91 3.37 1.9 3.2 1.9C2.93 1.91 2.65 1.93 2.37 1.96C2.37 4.24 2.37 6.52 2.37 8.8C1.58 8.88 0.79 9.04 0 9.28ZM5.11 4.81C5.48 5.52 5.84 6.25 6.2 7C6.57 7.74 6.93 8.5 7.3 9.28C6.87 9.15 6.44 9.04 6.01 8.96C5.58 8.88 5.15 8.82 4.72 8.78C4.36 8.07 4.01 7.38 3.65 6.71C3.3 6.05 2.94 5.4 2.59 4.77C2.94 4.74 3.3 4.72 3.65 4.72C4.14 4.72 4.63 4.75 5.11 4.81Z" fill="#005B96"/>
</svg>
